<?xml version="1.0" encoding="UTF-8"?>
<svg width="128pt" height="128pt" version="1.1" viewBox="0 0 128 128" xmlns="http://www.w3.org/2000/svg">
 <style>
   .popcorn-logo{fill:#ffffff}
 </style>
 <path class="popcorn-logo" d="m93.707 91.199-6.6367 15.922c-0.20703 0.49609-0.69531 0.82031-1.2344 0.82031-0.17188 0-0.34375-0.03125-0.50391-0.097656-0.67578-0.28125-0.99609-1.0625-0.71484-1.7383l6.6367-15.922v-0.003906c0.28125-0.67969 1.0625-1 1.7461-0.71875 0.67969 0.28516 1 1.0664 0.71875 1.7461zm1.0781-7.5625c-0.53906 0-1.0234 0.32422-1.2305 0.82422-0.20703 0.49609-0.09375 1.0703 0.28906 1.4531 0.38281 0.37891 0.95312 0.49609 1.4531 0.28906s0.82422-0.69141 0.82422-1.2344c-0.003906-0.73047-0.60156-1.3242-1.3359-1.3242zm2.8633-25.465c-0.22266 0.98828-0.66016 1.9141-1.2891 2.7109 0.24609 0.11328 0.44922 0.30078 0.58203 0.53125 0.17969 0.35156 0.19922 0.76563 0.046875 1.1289l-21.465 51.465v0.003907c-0.20703 0.49609-0.69531 0.82031-1.2344 0.81641-0.097656 0-0.19531-0.007813-0.29297-0.03125l-18.992-4.2383-18.988-4.2109c-0.63281-0.14062-1.0703-0.71484-1.043-1.3594l2.4492-55.719v-0.003906c0.015625-0.39453 0.20703-0.75781 0.51953-1 0.31641-0.23828 0.71875-0.32812 1.1055-0.24219l0.16406 0.039062c-0.003907-0.32812 0.03125-0.65625 0.097656-0.97266 0.41016-1.8086 1.9414-3.1484 3.7891-3.3086 0.015625-0.24609 0.046875-0.49219 0.10156-0.73438 0.24219-1.0977 0.91406-2.0469 1.8633-2.6445 0.71484-0.44141 1.5391-0.66797 2.3789-0.65625 0.015625-0.089844 0.035156-0.17578 0.054688-0.26562 0.64453-2.875 3.4961-4.6797 6.3711-4.0352 1.1289 0.25 2.1484 0.86719 2.8906 1.7539 0.58984-0.36719 1.2773-0.54297 1.9688-0.51562 0.42578 0.023437 0.83984 0.12109 1.2305 0.28906 0.44922-0.73438 1.0586-1.3555 1.7852-1.8164 1.3516-0.86328 3-1.1211 4.5508-0.71484 1.5469 0.40234 2.8594 1.4336 3.6133 2.8477 0.28906-0.058593 0.58203-0.078124 0.875-0.058593 0.83984 0.03125 1.6406 0.375 2.2383 0.96875 1.9414-1.7461 4.7734-2.0664 7.0547-0.80078 2.2812 1.2695 3.5039 3.8477 3.043 6.4141 0.83984 0.22656 1.5938 0.69922 2.1602 1.3633 1.0547-0.57031 2.2773-0.73828 3.4492-0.47266 2.4961 0.5625 4.1719 2.9102 3.8945 5.457 3.5859 0.83984 5.8281 4.4062 5.0312 8zm-55.562-9.4688 19.137 4.2656 20.863 4.6523-0.003907 0.003906c0.61328-0.32812 0.95703-1.0039 0.85938-1.6953-0.066406-0.43359-0.30469-0.82422-0.66406-1.082-0.35547-0.25781-0.80469-0.35938-1.2383-0.28125-0.26172 0.042969-0.51172 0.14453-0.73047 0.29688-0.60938 0.39844-1.4297 0.23438-1.8359-0.36719-0.41016-0.60156-0.26172-1.4219 0.33594-1.8398 0.53906-0.37109 1.1562-0.61719 1.8008-0.72266 2.3516-0.37891 4.5664 1.2109 4.9609 3.5586 0.15625 0.96094-0.019531 1.9492-0.50391 2.7969l8.1953 1.8281c1.3828-0.875 2.1055-2.4961 1.8203-4.1094-0.28125-1.6133-1.5078-2.8945-3.1094-3.2461-0.34375-0.078125-0.69531-0.10938-1.0508-0.09375-0.47266 0-0.91406-0.23828-1.168-0.63672-0.25-0.41016-0.26562-0.91797-0.035156-1.3359 0.09375-0.17187 0.16406-0.35937 0.20703-0.55469 0.28516-1.2734-0.51562-2.5352-1.7852-2.8242-0.83594-0.19141-1.707 0.10156-2.2539 0.76172-0.32031 0.39062-0.83203 0.5625-1.3281 0.45312-0.49219-0.11328-0.875-0.49609-0.99609-0.98828-0.14453-0.57812-0.60156-1.0234-1.1836-1.1484-0.23828-0.058593-0.49219-0.046875-0.72266 0.035157-0.53125 0.19531-1.1289 0.03125-1.4883-0.40234-0.35938-0.4375-0.40625-1.0547-0.11328-1.5391 0.57031-0.94531 0.64844-2.1016 0.21094-3.1133s-1.3359-1.75-2.4141-1.9805c-1.5938-0.35547-3.2148 0.45703-3.8906 1.9453-0.25781 0.58594-0.89453 0.90625-1.5156 0.76172-0.62109-0.14062-1.0547-0.70703-1.0352-1.3438 0.019532-0.44922-0.32422-0.82812-0.77344-0.84766-0.20312-0.019531-0.40625 0.050782-0.55859 0.19141-0.34766 0.34375-0.86328 0.46484-1.332 0.3125-0.46484-0.14844-0.8125-0.53516-0.90625-1.0117-0.19922-0.99609-0.87891-1.832-1.8125-2.2305-0.9375-0.39844-2.0078-0.3125-2.8672 0.23438-0.69141 0.4375-1.1797 1.1328-1.3516 1.9297-0.12891 0.57812-0.59375 1.0195-1.1758 1.1211-0.55469 0.085938-1.1016-0.18359-1.3711-0.67188-0.13281-0.25391-0.39062-0.42188-0.67969-0.43359-0.20312-0.015624-0.39844 0.066407-0.53516 0.21484 1.1328 0.67578 1.9414 1.7812 2.2422 3.0664 1.1172-0.042968 2.1953 0.4375 2.9141 1.2969 0.71875 0.85937 1 2.0039 0.75781 3.1016-0.16016 0.71484-0.87109 1.168-1.5898 1.0078-0.71875-0.16016-1.1719-0.87109-1.0117-1.5898 0.054687-0.24219 0.007813-0.49609-0.12891-0.70703-0.13672-0.20703-0.34766-0.35547-0.59375-0.41016-0.28125-0.066406-0.57422 0.003907-0.80078 0.18359-0.44531 0.36328-1.0703 0.39844-1.5547 0.089844-0.48438-0.30859-0.71875-0.89062-0.57812-1.4492 0.25391-1.1562-0.47656-2.3008-1.6328-2.5586-0.55859-0.125-1.1406-0.019531-1.6172 0.28906-0.48047 0.30859-0.81641 0.79297-0.93359 1.3516-0.078125 0.35156-0.066406 0.71875 0.035157 1.0664 0.10547 0.33984 0.070312 0.70703-0.09375 1.0195-0.16797 0.3125-0.45313 0.54688-0.79297 0.65234-0.33984 0.10156-0.70703 0.066407-1.0195-0.10156-0.3125-0.17188-0.54688-0.45703-0.64453-0.79688-0.39453-1.3086-0.21484-2.7188 0.49609-3.8867 0.70703-1.168 1.8789-1.9766 3.2188-2.2305-0.35938-0.45703-0.86328-0.77734-1.4297-0.91406-1.4375-0.32031-2.8594 0.58594-3.1836 2.0195-0.082031 0.37109-0.082031 0.75781 0 1.1328 0.125 0.53516-0.097657 1.0938-0.55469 1.4023-0.46094 0.30469-1.0586 0.30078-1.5117-0.015624-0.10937-0.066407-0.22656-0.10938-0.35156-0.13281-0.40625-0.089844-0.83594-0.015625-1.1875 0.20703-0.35156 0.21875-0.60156 0.56641-0.6875 0.96875-0.09375 0.38672-0.03125 0.79688 0.17969 1.1328 0.33594 0.52344 0.26953 1.207-0.16016 1.6523-0.43359 0.44922-1.1172 0.53516-1.6484 0.21484-0.11719-0.070312-0.24219-0.12109-0.375-0.14844-0.85156-0.17969-1.6875 0.35547-1.8867 1.1992-0.074219 0.35156-0.015625 0.71484 0.16406 1.0234zm24.281 61.695 16.801-49.785-8.6797-1.9453-13.422 50.539zm-15.602-57.016-5.9648 52.191 5.2969 1.1797 9.332-51.449zm-13.082 50.605 4.5 1.0039 5.9648-52.191-8.1289-1.8125zm17.902 4 2.8789 0.64453 13.414-50.543-9.832-2.1953-9.332 51.449 2.8789 0.64453zm38.324-44.992-8.1289-1.8125-16.801 49.785 4.5078 1.0039zm-24.887-11.262c0.11719 0 0.23437-0.015625 0.34375-0.046875 0.71094-0.19141 1.1328-0.92188 0.94531-1.6328-0.14453-0.51953-0.007812-1.0781 0.36719-1.4727 0.37109-0.39062 0.92187-0.55859 1.4492-0.44531 0.44141 0.097656 0.81641 0.37891 1.0312 0.77344 0.21484 0.40234 0.62109 0.66797 1.0781 0.70312 0.45703 0.027344 0.89844-0.17188 1.1758-0.53516 0.43359-0.57422 1.1641-0.83984 1.8672-0.6875 0.60156 0.13281 1.1016 0.55859 1.332 1.1328 0.125 0.33594 0.37891 0.61328 0.70703 0.75781 0.32813 0.14844 0.70313 0.15625 1.0391 0.023438 0.33203-0.13281 0.60156-0.39453 0.73828-0.72656 0.13672-0.33594 0.13672-0.70703-0.007812-1.0391-0.54688-1.3984-1.7578-2.4375-3.2227-2.7656-1.168-0.26563-2.3945-0.050782-3.4023 0.59766-0.50781-0.41016-1.1055-0.69922-1.7461-0.83984-1.0859-0.24609-2.2266-0.050781-3.168 0.54688-0.94141 0.59766-1.6055 1.5469-1.8477 2.6328-0.14844 0.66797-0.13672 1.3633 0.039063 2.0234 0.15234 0.58594 0.67969 0.99609 1.2812 1zm-24.895-29.199c-1.5586-1.5156-1.6914-3.9727-0.30469-5.6445s3.8281-1.9922 5.6016-0.74219c1.7695-1.4375 4.2539-1.5977 6.1875-0.39063 1.9336 1.2031 2.8906 3.5039 2.3789 5.7266-0.20313 0.91797-0.64844 1.7656-1.2891 2.457 0.28906 0.89844 0.33203 1.8555 0.11719 2.7773-0.44922 2.0117-2.0156 3.582-4.0234 4.0391-2.0117 0.45703-4.1016-0.28516-5.375-1.9062-1.332-0.089843-2.5391-0.80859-3.2461-1.9414-0.58594-0.9375-0.77734-2.0703-0.53125-3.1484 0.097657-0.42969 0.26172-0.84766 0.48438-1.2266zm2.4766-1.5781v-0.003906c0.52734 0.14062 0.91406 0.58594 0.98047 1.125 0.070312 0.53906-0.19531 1.0664-0.67188 1.3281-0.34375 0.20312-0.58984 0.54297-0.66797 0.9375-0.09375 0.39453-0.023438 0.8125 0.1875 1.1562 0.21484 0.33594 0.55078 0.57422 0.94141 0.66016 0.15234 0.035156 0.3125 0.035156 0.46484 0 0.089844-0.019531 0.17578-0.027344 0.26562-0.03125 0.49609 0 0.94922 0.27344 1.1797 0.70703 0.35547 0.64062 0.95703 1.1094 1.6641 1.293 0.71094 0.18359 1.4609 0.066406 2.082-0.32031 0.60547-0.38281 1.0312-0.99609 1.1797-1.6953 0.15234-0.64453 0.050781-1.3203-0.28516-1.8867-0.34766-0.59766-0.17578-1.3633 0.39062-1.7617 0.54297-0.375 0.92578-0.94141 1.0664-1.5859 0.32422-1.4375-0.57422-2.8672-2.0117-3.1992-1.082-0.25391-2.207 0.20312-2.8047 1.1406-0.21875 0.44141-0.69531 0.69922-1.1836 0.62891-0.47266-0.019531-0.89453-0.28906-1.1172-0.70312-0.19141-0.34375-0.52734-0.58594-0.91406-0.66016-0.38672-0.089844-0.79297-0.019532-1.1289 0.19141-0.33594 0.21484-0.57031 0.55469-0.65234 0.94141-0.17969 0.76172 0.28125 1.5312 1.0352 1.7344zm2.668 2.6172c0.1875 0.11328 0.34375 0.27734 0.44141 0.47266 0.22656 0.45312 0.6875 0.73828 1.1914 0.73828 0.20703 0 0.41016-0.046875 0.59375-0.14062 0.66016-0.32812 0.92578-1.1289 0.59766-1.7852-0.32422-0.65625-0.83594-1.207-1.4648-1.5781-0.30469-0.1875-0.67187-0.24609-1.0195-0.16016-0.34766 0.085937-0.64453 0.30469-0.82812 0.61328s-0.23438 0.67578-0.14062 1.0234c0.089844 0.34375 0.31641 0.63672 0.62891 0.81641zm24.836 4.0312v-0.003907c0.09375 0.019532 0.19141 0.03125 0.28516 0.03125 0.625 0 1.168-0.4375 1.3008-1.0469l2.5859-11.82v-0.003906c0.15625-0.71875-0.30078-1.4297-1.0195-1.5859-0.71875-0.16016-1.4297 0.29688-1.5859 1.0156l-2.5859 11.82c-0.15625 0.71875 0.29688 1.4297 1.0156 1.5898zm13.672 4.7539v-0.003906c0.29297 0.007812 0.58203-0.085938 0.81641-0.26562l7.9805-6.1523h-0.003906c0.58594-0.44922 0.69141-1.2852 0.24219-1.8711-0.44922-0.58203-1.2852-0.69141-1.8711-0.23828l-7.9805 6.1523h0.003906c-0.46094 0.34375-0.64844 0.94141-0.46484 1.4883 0.17969 0.54297 0.69141 0.91016 1.2656 0.91016zm-48.516 4.5625c0.60156-0.003906 1.125-0.40625 1.2852-0.98438 0.15625-0.57812-0.089843-1.1914-0.60547-1.4961l-7.7344-4.5625c-0.30469-0.19922-0.67578-0.26172-1.0312-0.17969-0.35156 0.085937-0.65625 0.30859-0.83984 0.62109s-0.23438 0.6875-0.13672 1.0391c0.097656 0.34766 0.33594 0.64062 0.65625 0.8125l7.7344 4.5625c0.20312 0.12109 0.4375 0.18359 0.67188 0.1875z"/>
</svg>
